<svg xmlns="http://www.w3.org/2000/svg" width="512" height="512" viewBox="0 0 512 512">
  <defs>
    <linearGradient id="bg" x1="64" x2="448" y1="48" y2="464" gradientUnits="userSpaceOnUse">
      <stop offset="0" stop-color="#0f172a" />
      <stop offset="1" stop-color="#1d4ed8" />
    </linearGradient>
    <linearGradient id="mark" x1="160" x2="344" y1="140" y2="372" gradientUnits="userSpaceOnUse">
      <stop offset="0" stop-color="#f8fafc" />
      <stop offset="1" stop-color="#bfdbfe" />
    </linearGradient>
  </defs>
  <rect width="512" height="512" rx="112" fill="url(#bg)" />
  <path
    fill="url(#mark)"
    d="M158 142c0-16.569 13.431-30 30-30h136c16.569 0 30 13.431 30 30v28c0 16.569-13.431 30-30 30h-62v170c0 16.569-13.431 30-30 30h-44c-16.569 0-30-13.431-30-30V142Zm76 58h58v170h-58V200Z"
  />
  <path
    fill="#60a5fa"
    d="M324 112c16.569 0 30 13.431 30 30v28c0 16.569-13.431 30-30 30h-62l92-88h-30Z"
    opacity="0.9"
  />
</svg>
